<svg xmlns="http://www.w3.org/2000/svg" width="1600" height="1067" viewBox="0 0 1600 1067"><rect width="1600" height="1067" fill="#262323"/><line x1="-1200" y1="0" x2="-100" y2="1067" stroke="#2c2928" stroke-width="2"/><line x1="-1154" y1="0" x2="-54" y2="1067" stroke="#2c2928" stroke-width="2"/><line x1="-1108" y1="0" x2="-8" y2="1067" stroke="#2c2928" stroke-width="2"/><line x1="-1062" y1="0" x2="38" y2="1067" stroke="#2c2928" stroke-width="2"/><line x1="-1016" y1="0" x2="84" y2="1067" stroke="#2c2928" stroke-width="2"/><line x1="-970" y1="0" x2="130" y2="1067" stroke="#2c2928" stroke-width="2"/><line x1="-924" y1="0" x2="176" y2="1067" stroke="#2c2928" stroke-width="2"/><line x1="-878" y1="0" x2="222" y2="1067" stroke="#2c2928" stroke-width="2"/><line x1="-832" y1="0" x2="268" y2="1067" stroke="#2c2928" stroke-width="2"/><line x1="-786" y1="0" x2="314" y2="1067" stroke="#2c2928" stroke-width="2"/><line x1="-740" y1="0" x2="360" y2="1067" stroke="#2c2928" stroke-width="2"/><line x1="-694" y1="0" x2="406" y2="1067" stroke="#2c2928" stroke-width="2"/><line x1="-648" y1="0" x2="452" y2="1067" stroke="#2c2928" stroke-width="2"/><line x1="-602" y1="0" x2="498" y2="1067" stroke="#2c2928" stroke-width="2"/><line x1="-556" y1="0" x2="544" y2="1067" stroke="#2c2928" stroke-width="2"/><line x1="-510" y1="0" x2="590" y2="1067" stroke="#2c2928" stroke-width="2"/><line x1="-464" y1="0" x2="636" y2="1067" stroke="#2c2928" stroke-width="2"/><line x1="-418" y1="0" x2="682" y2="1067" stroke="#2c2928" stroke-width="2"/><line x1="-372" y1="0" x2="728" y2="1067" stroke="#2c2928" stroke-width="2"/><line x1="-326" y1="0" x2="774" y2="1067" stroke="#2c2928" stroke-width="2"/><line x1="-280" y1="0" x2="820" y2="1067" stroke="#2c2928" stroke-width="2"/><line x1="-234" y1="0" x2="866" y2="1067" stroke="#2c2928" stroke-width="2"/><line x1="-188" y1="0" x2="912" y2="1067" stroke="#2c2928" stroke-width="2"/><line x1="-142" y1="0" x2="958" y2="1067" stroke="#2c2928" stroke-width="2"/><line x1="-96" y1="0" x2="1004" y2="1067" stroke="#2c2928" stroke-width="2"/><line x1="-50" y1="0" x2="1050" y2="1067" stroke="#2c2928" stroke-width="2"/><line x1="-4" y1="0" x2="1096" y2="1067" stroke="#2c2928" stroke-width="2"/><line x1="42" y1="0" x2="1142" y2="1067" stroke="#2c2928" stroke-width="2"/><line x1="88" y1="0" x2="1188" y2="1067" stroke="#2c2928" stroke-width="2"/><line x1="134" y1="0" x2="1234" y2="1067" stroke="#2c2928" stroke-width="2"/><line x1="180" y1="0" x2="1280" y2="1067" stroke="#2c2928" stroke-width="2"/><line x1="226" y1="0" x2="1326" y2="1067" stroke="#2c2928" stroke-width="2"/><line x1="272" y1="0" x2="1372" y2="1067" stroke="#2c2928" stroke-width="2"/><line x1="318" y1="0" x2="1418" y2="1067" stroke="#2c2928" stroke-width="2"/><line x1="364" y1="0" x2="1464" y2="1067" stroke="#2c2928" stroke-width="2"/><line x1="410" y1="0" x2="1510" y2="1067" stroke="#2c2928" stroke-width="2"/><line x1="456" y1="0" x2="1556" y2="1067" stroke="#2c2928" stroke-width="2"/><line x1="502" y1="0" x2="1602" y2="1067" stroke="#2c2928" stroke-width="2"/><line x1="548" y1="0" x2="1648" y2="1067" stroke="#2c2928" stroke-width="2"/><line x1="594" y1="0" x2="1694" y2="1067" stroke="#2c2928" stroke-width="2"/><line x1="640" y1="0" x2="1740" y2="1067" stroke="#2c2928" stroke-width="2"/><line x1="686" y1="0" x2="1786" y2="1067" stroke="#2c2928" stroke-width="2"/><line x1="732" y1="0" x2="1832" y2="1067" stroke="#2c2928" stroke-width="2"/><line x1="778" y1="0" x2="1878" y2="1067" stroke="#2c2928" stroke-width="2"/><line x1="824" y1="0" x2="1924" y2="1067" stroke="#2c2928" stroke-width="2"/><line x1="870" y1="0" x2="1970" y2="1067" stroke="#2c2928" stroke-width="2"/><line x1="916" y1="0" x2="2016" y2="1067" stroke="#2c2928" stroke-width="2"/><line x1="962" y1="0" x2="2062" y2="1067" stroke="#2c2928" stroke-width="2"/><line x1="1008" y1="0" x2="2108" y2="1067" stroke="#2c2928" stroke-width="2"/><line x1="1054" y1="0" x2="2154" y2="1067" stroke="#2c2928" stroke-width="2"/><line x1="1100" y1="0" x2="2200" y2="1067" stroke="#2c2928" stroke-width="2"/><line x1="1146" y1="0" x2="2246" y2="1067" stroke="#2c2928" stroke-width="2"/><line x1="1192" y1="0" x2="2292" y2="1067" stroke="#2c2928" stroke-width="2"/><line x1="1238" y1="0" x2="2338" y2="1067" stroke="#2c2928" stroke-width="2"/><line x1="1284" y1="0" x2="2384" y2="1067" stroke="#2c2928" stroke-width="2"/><line x1="1330" y1="0" x2="2430" y2="1067" stroke="#2c2928" stroke-width="2"/><line x1="1376" y1="0" x2="2476" y2="1067" stroke="#2c2928" stroke-width="2"/><line x1="1422" y1="0" x2="2522" y2="1067" stroke="#2c2928" stroke-width="2"/><line x1="1468" y1="0" x2="2568" y2="1067" stroke="#2c2928" stroke-width="2"/><line x1="1514" y1="0" x2="2614" y2="1067" stroke="#2c2928" stroke-width="2"/><line x1="1560" y1="0" x2="2660" y2="1067" stroke="#2c2928" stroke-width="2"/><line x1="1606" y1="0" x2="2706" y2="1067" stroke="#2c2928" stroke-width="2"/><line x1="1652" y1="0" x2="2752" y2="1067" stroke="#2c2928" stroke-width="2"/><line x1="1698" y1="0" x2="2798" y2="1067" stroke="#2c2928" stroke-width="2"/><line x1="1744" y1="0" x2="2844" y2="1067" stroke="#2c2928" stroke-width="2"/><line x1="1790" y1="0" x2="2890" y2="1067" stroke="#2c2928" stroke-width="2"/><rect x="46" y="46" width="1508" height="975" fill="none" stroke="#2c2928" stroke-width="3"/><g transform="translate(565.0,298.5) scale(0.91797)"><path fill="#f2f2f2" d="M256 99.633c-37.26 0-74.595 11.18-119.844 33.328 1.565 57.322 29.767 114.884 57.942 145.362C211.383 271.182 233.625 268 256 268s44.617 3.18 61.902 10.322c28.175-30.478 56.377-88.04 57.942-145.36C330.594 110.813 293.26 99.63 256 99.63zm-134.422 54.135c-25.185 6.602-40.16 20.58-49.844 40.697-5.602 34.042-.223 57 10.98 74.916 10.892 17.424 27.93 30.347 47.21 42.335 10.962-1.166 21.316-2.24 30.152-5.563 8.206-3.086 15.32-8.034 21.715-17.27-27.815-30.238-53.7-80.825-60.212-135.114zm268.844 0c-6.513 54.29-32.397 104.876-60.213 135.115 6.393 9.235 13.508 14.183 21.714 17.27 8.836 3.322 19.19 4.396 30.152 5.562 19.28-11.988 36.318-24.91 47.21-42.334 11.203-17.915 16.582-40.873 10.98-74.915-9.684-20.118-24.66-34.095-49.844-40.697zM54.33 234.014C36.35 260.292 24 289.6 24 320c0 21.623 1.848 42.626 6.418 58.707 4.57 16.08 11.55 26.322 20.512 29.85 13.776 4.573 33.902-22.085 45.773-41.323 3.23-6.184 6.993-13.896 10.555-21.39 5.296-11.145 8.708-18.703 10.545-22.787-18.77-11.952-36.496-25.745-48.657-45.194-7.68-12.283-12.92-26.732-14.816-43.85zm403.34 0c-1.897 17.117-7.137 31.566-14.816 43.85-12.16 19.448-29.886 33.24-48.657 45.193 1.837 4.084 5.25 11.642 10.545 22.787 3.562 7.494 7.326 15.206 10.555 21.39 7.403 14.066 26.39 45.016 45.773 41.323 8.96-3.528 15.942-13.77 20.512-29.85C486.152 362.627 488 341.623 488 320c0-30.4-12.35-59.708-30.33-85.986z"/></g></svg>