<svg xmlns="http://www.w3.org/2000/svg" width="1600" height="1067" viewBox="0 0 1600 1067"><rect width="1600" height="1067" fill="#efefed"/><line x1="-1200" y1="0" x2="-100" y2="1067" stroke="#e5e4e1" stroke-width="2"/><line x1="-1154" y1="0" x2="-54" y2="1067" stroke="#e5e4e1" stroke-width="2"/><line x1="-1108" y1="0" x2="-8" y2="1067" stroke="#e5e4e1" stroke-width="2"/><line x1="-1062" y1="0" x2="38" y2="1067" stroke="#e5e4e1" stroke-width="2"/><line x1="-1016" y1="0" x2="84" y2="1067" stroke="#e5e4e1" stroke-width="2"/><line x1="-970" y1="0" x2="130" y2="1067" stroke="#e5e4e1" stroke-width="2"/><line x1="-924" y1="0" x2="176" y2="1067" stroke="#e5e4e1" stroke-width="2"/><line x1="-878" y1="0" x2="222" y2="1067" stroke="#e5e4e1" stroke-width="2"/><line x1="-832" y1="0" x2="268" y2="1067" stroke="#e5e4e1" stroke-width="2"/><line x1="-786" y1="0" x2="314" y2="1067" stroke="#e5e4e1" stroke-width="2"/><line x1="-740" y1="0" x2="360" y2="1067" stroke="#e5e4e1" stroke-width="2"/><line x1="-694" y1="0" x2="406" y2="1067" stroke="#e5e4e1" stroke-width="2"/><line x1="-648" y1="0" x2="452" y2="1067" stroke="#e5e4e1" stroke-width="2"/><line x1="-602" y1="0" x2="498" y2="1067" stroke="#e5e4e1" stroke-width="2"/><line x1="-556" y1="0" x2="544" y2="1067" stroke="#e5e4e1" stroke-width="2"/><line x1="-510" y1="0" x2="590" y2="1067" stroke="#e5e4e1" stroke-width="2"/><line x1="-464" y1="0" x2="636" y2="1067" stroke="#e5e4e1" stroke-width="2"/><line x1="-418" y1="0" x2="682" y2="1067" stroke="#e5e4e1" stroke-width="2"/><line x1="-372" y1="0" x2="728" y2="1067" stroke="#e5e4e1" stroke-width="2"/><line x1="-326" y1="0" x2="774" y2="1067" stroke="#e5e4e1" stroke-width="2"/><line x1="-280" y1="0" x2="820" y2="1067" stroke="#e5e4e1" stroke-width="2"/><line x1="-234" y1="0" x2="866" y2="1067" stroke="#e5e4e1" stroke-width="2"/><line x1="-188" y1="0" x2="912" y2="1067" stroke="#e5e4e1" stroke-width="2"/><line x1="-142" y1="0" x2="958" y2="1067" stroke="#e5e4e1" stroke-width="2"/><line x1="-96" y1="0" x2="1004" y2="1067" stroke="#e5e4e1" stroke-width="2"/><line x1="-50" y1="0" x2="1050" y2="1067" stroke="#e5e4e1" stroke-width="2"/><line x1="-4" y1="0" x2="1096" y2="1067" stroke="#e5e4e1" stroke-width="2"/><line x1="42" y1="0" x2="1142" y2="1067" stroke="#e5e4e1" stroke-width="2"/><line x1="88" y1="0" x2="1188" y2="1067" stroke="#e5e4e1" stroke-width="2"/><line x1="134" y1="0" x2="1234" y2="1067" stroke="#e5e4e1" stroke-width="2"/><line x1="180" y1="0" x2="1280" y2="1067" stroke="#e5e4e1" stroke-width="2"/><line x1="226" y1="0" x2="1326" y2="1067" stroke="#e5e4e1" stroke-width="2"/><line x1="272" y1="0" x2="1372" y2="1067" stroke="#e5e4e1" stroke-width="2"/><line x1="318" y1="0" x2="1418" y2="1067" stroke="#e5e4e1" stroke-width="2"/><line x1="364" y1="0" x2="1464" y2="1067" stroke="#e5e4e1" stroke-width="2"/><line x1="410" y1="0" x2="1510" y2="1067" stroke="#e5e4e1" stroke-width="2"/><line x1="456" y1="0" x2="1556" y2="1067" stroke="#e5e4e1" stroke-width="2"/><line x1="502" y1="0" x2="1602" y2="1067" stroke="#e5e4e1" stroke-width="2"/><line x1="548" y1="0" x2="1648" y2="1067" stroke="#e5e4e1" stroke-width="2"/><line x1="594" y1="0" x2="1694" y2="1067" stroke="#e5e4e1" stroke-width="2"/><line x1="640" y1="0" x2="1740" y2="1067" stroke="#e5e4e1" stroke-width="2"/><line x1="686" y1="0" x2="1786" y2="1067" stroke="#e5e4e1" stroke-width="2"/><line x1="732" y1="0" x2="1832" y2="1067" stroke="#e5e4e1" stroke-width="2"/><line x1="778" y1="0" x2="1878" y2="1067" stroke="#e5e4e1" stroke-width="2"/><line x1="824" y1="0" x2="1924" y2="1067" stroke="#e5e4e1" stroke-width="2"/><line x1="870" y1="0" x2="1970" y2="1067" stroke="#e5e4e1" stroke-width="2"/><line x1="916" y1="0" x2="2016" y2="1067" stroke="#e5e4e1" stroke-width="2"/><line x1="962" y1="0" x2="2062" y2="1067" stroke="#e5e4e1" stroke-width="2"/><line x1="1008" y1="0" x2="2108" y2="1067" stroke="#e5e4e1" stroke-width="2"/><line x1="1054" y1="0" x2="2154" y2="1067" stroke="#e5e4e1" stroke-width="2"/><line x1="1100" y1="0" x2="2200" y2="1067" stroke="#e5e4e1" stroke-width="2"/><line x1="1146" y1="0" x2="2246" y2="1067" stroke="#e5e4e1" stroke-width="2"/><line x1="1192" y1="0" x2="2292" y2="1067" stroke="#e5e4e1" stroke-width="2"/><line x1="1238" y1="0" x2="2338" y2="1067" stroke="#e5e4e1" stroke-width="2"/><line x1="1284" y1="0" x2="2384" y2="1067" stroke="#e5e4e1" stroke-width="2"/><line x1="1330" y1="0" x2="2430" y2="1067" stroke="#e5e4e1" stroke-width="2"/><line x1="1376" y1="0" x2="2476" y2="1067" stroke="#e5e4e1" stroke-width="2"/><line x1="1422" y1="0" x2="2522" y2="1067" stroke="#e5e4e1" stroke-width="2"/><line x1="1468" y1="0" x2="2568" y2="1067" stroke="#e5e4e1" stroke-width="2"/><line x1="1514" y1="0" x2="2614" y2="1067" stroke="#e5e4e1" stroke-width="2"/><line x1="1560" y1="0" x2="2660" y2="1067" stroke="#e5e4e1" stroke-width="2"/><line x1="1606" y1="0" x2="2706" y2="1067" stroke="#e5e4e1" stroke-width="2"/><line x1="1652" y1="0" x2="2752" y2="1067" stroke="#e5e4e1" stroke-width="2"/><line x1="1698" y1="0" x2="2798" y2="1067" stroke="#e5e4e1" stroke-width="2"/><line x1="1744" y1="0" x2="2844" y2="1067" stroke="#e5e4e1" stroke-width="2"/><line x1="1790" y1="0" x2="2890" y2="1067" stroke="#e5e4e1" stroke-width="2"/><rect x="46" y="46" width="1508" height="975" fill="none" stroke="#e5e4e1" stroke-width="3"/><g transform="translate(565.0,298.5) scale(0.91797)"><path fill="#1c1a1a" d="M140.78 28.03L131.907 54c43.253 8.353 84.735 22.207 124.063 42.406l8.874-25.937L140.78 28.03zm141.282 49.782l-8.343 24.407c5.582 11.184 6.648 25.473-.25 45.624 72.357 24.773 140.607 52.916 223.75 47.03-58.85-46.902-124.914-82.347-215.158-117.06zM130.095 99.094L105.22 131.53c50.832 28.482 96.958 63.293 137.5 105.407l24.843-32.375-137.47-105.468zm-74.656 2.656l-26.813 15.625c29.6 37.582 53.774 78.455 71.594 123.03L127 224.813 55.437 101.75zM279.78 219.344l-18.686 24.375c3.42 16.74-.533 35.585-18.375 58.843 77.76 59.655 149.145 121.704 252.53 148.53-52.672-81.572-118.975-152.038-215.47-231.75zm-145.217 22.72l-23.407 13.592c-3.13 13.372-12.31 26.05-32.594 37.844 41.332 71.09 76.94 142.002 148.625 195.78-14.802-79.716-43.58-155.194-92.625-247.217z"/></g></svg>